<svg xmlns="http://www.w3.org/2000/svg" baseProfile="basic" viewBox="0 0 48 48"><linearGradient id="4SY5tNux3nYteBUOfOb_9a" x1="5.259" x2="52.554" y1="53.46" y2="-28.457" gradientUnits="userSpaceOnUse"><stop offset="0" stop-color="#262626" stop-opacity="0"/><stop offset="1" stop-color="#262626" stop-opacity=".8"/></linearGradient><path fill="url(#4SY5tNux3nYteBUOfOb_9a)" d="M40,9v29H8V4h27C37.761,4,40,6.239,40,9z"/><linearGradient id="4SY5tNux3nYteBUOfOb_9b" x1="33.795" x2="19.923" y1="66.355" y2="28.241" gradientUnits="userSpaceOnUse"><stop offset="0" stop-color="#262626" stop-opacity="0"/><stop offset="1" stop-color="#262626" stop-opacity=".8"/></linearGradient><path fill="url(#4SY5tNux3nYteBUOfOb_9b)" d="M40,45H13c-2.761,0-5-2.239-5-5v-2h32V45z"/><linearGradient id="4SY5tNux3nYteBUOfOb_9c" x1="13.611" x2="31.153" y1="42.544" y2="-5.653" gradientUnits="userSpaceOnUse"><stop offset="0" stop-color="#262626" stop-opacity="0"/><stop offset="1" stop-color="#262626" stop-opacity=".8"/></linearGradient><path fill="url(#4SY5tNux3nYteBUOfOb_9c)" d="M27,19h-9c-1.657,0-3,1.343-3,3v1h9c1.657,0,3-1.343,3-3V19z M33,12H18c-1.657,0-3,1.343-3,3	v1h15c1.657,0,3-1.343,3-3V12z"/></svg>