<svg xmlns="http://www.w3.org/2000/svg" baseProfile="basic" viewBox="0 0 48 48"><linearGradient id="hOOTNzBEnOdsyX06YrXGJa" x1="-8.007" x2="68.222" y1="46.623" y2="2.613" gradientUnits="userSpaceOnUse"><stop offset="0" stop-color="#262626" stop-opacity="0"/><stop offset="1" stop-color="#262626" stop-opacity=".8"/></linearGradient><path fill="url(#hOOTNzBEnOdsyX06YrXGJa)" d="M47,19l-5.74,19.68C40.513,41.24,38.167,43,35.5,43h-23c-2.667,0-5.013-1.76-5.76-4.32L1,19	H47z"/><linearGradient id="hOOTNzBEnOdsyX06YrXGJb" x1="6.906" x2="34.71" y1="60.608" y2="12.45" gradientUnits="userSpaceOnUse"><stop offset="0" stop-color="#262626" stop-opacity="0"/><stop offset="1" stop-color="#262626" stop-opacity=".8"/></linearGradient><path fill="url(#hOOTNzBEnOdsyX06YrXGJb)" d="M23,38h-1V27c0-1.657,1.343-3,3-3h1v11C26,36.657,24.657,38,23,38z M34,35V24h-1	c-1.657,0-3,1.343-3,3v11h1C32.657,38,34,36.657,34,35z M18,35V24h-1c-1.657,0-3,1.343-3,3v11h1C16.657,38,18,36.657,18,35z"/><linearGradient id="hOOTNzBEnOdsyX06YrXGJc" x1="5.354" x2="19.995" y1="31.303" y2="5.945" gradientUnits="userSpaceOnUse"><stop offset="0" stop-color="#262626" stop-opacity="0"/><stop offset="1" stop-color="#262626" stop-opacity=".8"/></linearGradient><path fill="url(#hOOTNzBEnOdsyX06YrXGJc)" d="M20,19H6c0-3.868,3.133-7,7-7S20,15.132,20,19z"/><linearGradient id="hOOTNzBEnOdsyX06YrXGJd" x1="32.004" x2="38.015" y1=".322" y2="34.41" gradientUnits="userSpaceOnUse"><stop offset="0" stop-color="#262626" stop-opacity="0"/><stop offset="1" stop-color="#262626" stop-opacity=".8"/></linearGradient><path fill="url(#hOOTNzBEnOdsyX06YrXGJd)" d="M41,15.72V19h-9.92l-3.06-3.9c0.08-2.89,0.79-5.74,2.09-8.32L31,5h7l0.89,1.78	C40.28,9.55,41,12.62,41,15.72z"/><linearGradient id="hOOTNzBEnOdsyX06YrXGJe" x1="16.399" x2="30.268" y1="7.825" y2="24.354" gradientUnits="userSpaceOnUse"><stop offset="0" stop-color="#262626" stop-opacity="0"/><stop offset="1" stop-color="#262626" stop-opacity=".8"/></linearGradient><path fill="url(#hOOTNzBEnOdsyX06YrXGJe)" d="M31.08,19H20c0-1.91-0.76-3.63-2-4.89c0-0.01,0-0.01,0-0.01l6-4.1L31.08,19z"/><linearGradient id="hOOTNzBEnOdsyX06YrXGJf" x1="33.699" x2="35.572" y1="-1.546" y2="9.078" gradientUnits="userSpaceOnUse"><stop offset="0" stop-color="#262626" stop-opacity="0"/><stop offset="1" stop-color="#262626" stop-opacity=".8"/></linearGradient><path fill="url(#hOOTNzBEnOdsyX06YrXGJf)" d="M38,5h-7V3c0-1.105,0.895-2,2-2h5V5z"/></svg>