<svg xmlns="http://www.w3.org/2000/svg" baseProfile="basic" viewBox="0 0 48 48"><linearGradient id="RGcxpSKPHFOA__uL4foU4a" x1="6.985" x2="48.536" y1="72.248" y2="-41.913" gradientUnits="userSpaceOnUse"><stop offset="0" stop-color="#262626" stop-opacity="0"/><stop offset="1" stop-color="#262626" stop-opacity=".8"/></linearGradient><path fill="url(#RGcxpSKPHFOA__uL4foU4a)" d="M40,6v34c0,2.76-2.24,5-5,5H8V11c0-2.76,2.24-5,5-5h7v5h4c2.21,0,4-1.79,4-4V6H40z"/><linearGradient id="RGcxpSKPHFOA__uL4foU4b" x1="13.313" x2="26.841" y1="-13.011" y2="10.421" gradientUnits="userSpaceOnUse"><stop offset="0" stop-color="#262626" stop-opacity="0"/><stop offset="1" stop-color="#262626" stop-opacity=".8"/></linearGradient><path fill="url(#RGcxpSKPHFOA__uL4foU4b)" d="M28,0h-4c-2.209,0-4,1.791-4,4v7h4c2.209,0,4-1.791,4-4V0z"/><linearGradient id="RGcxpSKPHFOA__uL4foU4c" x1="28.952" x2="17.373" y1="51.308" y2="19.496" gradientUnits="userSpaceOnUse"><stop offset=".005" stop-color="#262626" stop-opacity="0"/><stop offset="1" stop-color="#262626" stop-opacity=".8"/></linearGradient><path fill="url(#RGcxpSKPHFOA__uL4foU4c)" d="M24,29L24,29c-4.971,0-9,4.029-9,9v1h18v-1C33,33.029,28.971,29,24,29z"/><linearGradient id="RGcxpSKPHFOA__uL4foU4d" x1="29.047" x2="19.651" y1="35.866" y2="10.052" gradientUnits="userSpaceOnUse"><stop offset="0" stop-color="#262626" stop-opacity="0"/><stop offset="1" stop-color="#262626" stop-opacity=".8"/></linearGradient><path fill="url(#RGcxpSKPHFOA__uL4foU4d)" d="M25,27l-6,0l0-6c0-2.209,1.791-4,4-4h6l0,6C29,25.209,27.209,27,25,27z"/></svg>