<svg xmlns="http://www.w3.org/2000/svg" baseProfile="basic" viewBox="0 0 48 48">
  <linearGradient id="Oyjf_3JFXEHpi1MXC5esza" x1="7.657" x2="35.039" y1="62.735" y2="15.306" gradientUnits="userSpaceOnUse"><stop offset=".005" stop-color="#262626" stop-opacity="0"/><stop offset="1" stop-color="#262626" stop-opacity=".8"/></linearGradient><path fill="url(#Oyjf_3JFXEHpi1MXC5esza)" d="M27,24h-6c-4.418,0-8,3.582-8,8v7h22v-7C35,27.582,31.418,24,27,24z"/><linearGradient id="Oyjf_3JFXEHpi1MXC5eszb" x1="69.529" x2="26.011" y1="14.454" y2="35.223" gradientUnits="userSpaceOnUse"><stop offset="0" stop-color="#262626" stop-opacity=".8"/><stop offset=".995" stop-color="#262626" stop-opacity="0"/></linearGradient><path fill="url(#Oyjf_3JFXEHpi1MXC5eszb)" d="M40,22h-6c-2.108,0-4.019,0.821-5.448,2.153C32.227,24.876,35,28.113,35,32v3h13v-5	C48,25.582,44.418,22,40,22z"/><linearGradient id="Oyjf_3JFXEHpi1MXC5eszc" x1="-21.735" x2="21.408" y1="18.137" y2="33.335" gradientUnits="userSpaceOnUse"><stop offset="0" stop-color="#262626" stop-opacity=".8"/><stop offset=".995" stop-color="#262626" stop-opacity="0"/></linearGradient><path fill="url(#Oyjf_3JFXEHpi1MXC5eszc)" d="M13,32c0-3.887,2.773-7.124,6.448-7.847C18.019,22.821,16.108,22,14,22H8	c-4.418,0-8,3.582-8,8v5h13V32z"/><linearGradient id="Oyjf_3JFXEHpi1MXC5eszd" x1="15.141" x2="32.899" y1="31.345" y2=".586" gradientUnits="userSpaceOnUse"><stop offset="0" stop-color="#262626" stop-opacity="0"/><stop offset="1" stop-color="#262626" stop-opacity=".8"/></linearGradient><path fill="url(#Oyjf_3JFXEHpi1MXC5eszd)" d="M25,21h-6v-6c0-2.209,1.791-4,4-4h6v6C29,19.209,27.209,21,25,21z"/><linearGradient id="Oyjf_3JFXEHpi1MXC5esze" x1="5.942" x2="23.701" y1="22.76" y2="-7.998" gradientUnits="userSpaceOnUse"><stop offset="0" stop-color="#262626" stop-opacity="0"/><stop offset="1" stop-color="#262626" stop-opacity=".8"/></linearGradient><path fill="url(#Oyjf_3JFXEHpi1MXC5esze)" d="M12,19H6v-6c0-2.209,1.791-4,4-4h6v6C16,17.209,14.209,19,12,19z"/><linearGradient id="Oyjf_3JFXEHpi1MXC5eszf" x1="31.942" x2="49.701" y1="22.76" y2="-7.998" gradientUnits="userSpaceOnUse"><stop offset="0" stop-color="#262626" stop-opacity="0"/><stop offset="1" stop-color="#262626" stop-opacity=".8"/></linearGradient><path fill="url(#Oyjf_3JFXEHpi1MXC5eszf)" d="M38,19h-6v-6c0-2.209,1.791-4,4-4h6v6C42,17.209,40.209,19,38,19z"/></svg>
