<svg xmlns="http://www.w3.org/2000/svg" baseProfile="basic" viewBox="0 0 48 48"><linearGradient id="EsFuWYSpFdGKwRKMAfEJsa" x1="-640.426" x2="-606.13" y1="-80.426" y2="-46.13" gradientTransform="rotate(-90 -268 -340)" gradientUnits="userSpaceOnUse"><stop offset="0" stop-color="#262626" stop-opacity="0"/><stop offset="1" stop-color="#262626" stop-opacity=".8"/></linearGradient><path fill="url(#EsFuWYSpFdGKwRKMAfEJsa)" d="M9,5h10v10c0,2.209-1.791,4-4,4H5V9C5,6.791,6.791,5,9,5z"/><linearGradient id="EsFuWYSpFdGKwRKMAfEJsb" x1="-632.261" x2="-597.965" y1="-48.261" y2="-13.965" gradientTransform="rotate(-90 -268 -340)" gradientUnits="userSpaceOnUse"><stop offset="0" stop-color="#262626" stop-opacity="0"/><stop offset="1" stop-color="#262626" stop-opacity=".8"/></linearGradient><path fill="url(#EsFuWYSpFdGKwRKMAfEJsb)" d="M33,5h10v10c0,2.209-1.791,4-4,4H29V9C29,6.791,30.791,5,33,5z"/><linearGradient id="EsFuWYSpFdGKwRKMAfEJsc" x1="-656.261" x2="-621.965" y1="-72.261" y2="-37.965" gradientTransform="rotate(-90 -268 -340)" gradientUnits="userSpaceOnUse"><stop offset="0" stop-color="#262626" stop-opacity="0"/><stop offset="1" stop-color="#262626" stop-opacity=".8"/></linearGradient><path fill="url(#EsFuWYSpFdGKwRKMAfEJsc)" d="M9,29h10v10c0,2.209-1.791,4-4,4H5V33C5,30.791,6.791,29,9,29z"/><linearGradient id="EsFuWYSpFdGKwRKMAfEJsd" x1="-656.261" x2="-621.965" y1="-48.261" y2="-13.965" gradientTransform="rotate(-90 -268 -340)" gradientUnits="userSpaceOnUse"><stop offset="0" stop-color="#262626" stop-opacity="0"/><stop offset="1" stop-color="#262626" stop-opacity=".8"/></linearGradient><path fill="url(#EsFuWYSpFdGKwRKMAfEJsd)" d="M33,29h10v10c0,2.209-1.791,4-4,4H29V33C29,30.791,30.791,29,33,29z"/><linearGradient id="EsFuWYSpFdGKwRKMAfEJse" x1="-2.348" x2="19.24" y1="9.652" y2="31.24" gradientTransform="rotate(90 24 24)" gradientUnits="userSpaceOnUse"><stop offset="0" stop-color="#262626" stop-opacity="0"/><stop offset="1" stop-color="#262626" stop-opacity=".8"/></linearGradient><rect width="10" height="4" x="19" y="10" fill="url(#EsFuWYSpFdGKwRKMAfEJse)"/><linearGradient id="EsFuWYSpFdGKwRKMAfEJsf" x1="-2.348" x2="19.24" y1="9.652" y2="31.24" gradientTransform="rotate(180 24 24)" gradientUnits="userSpaceOnUse"><stop offset="0" stop-color="#262626" stop-opacity="0"/><stop offset="1" stop-color="#262626" stop-opacity=".8"/></linearGradient><rect width="4" height="10" x="34" y="19" fill="url(#EsFuWYSpFdGKwRKMAfEJsf)"/><linearGradient id="EsFuWYSpFdGKwRKMAfEJsg" x1="-2.348" x2="19.24" y1="9.652" y2="31.24" gradientTransform="rotate(-90 24 24)" gradientUnits="userSpaceOnUse"><stop offset="0" stop-color="#262626" stop-opacity="0"/><stop offset="1" stop-color="#262626" stop-opacity=".8"/></linearGradient><rect width="10" height="4" x="19" y="34" fill="url(#EsFuWYSpFdGKwRKMAfEJsg)"/><linearGradient id="EsFuWYSpFdGKwRKMAfEJsh" x1="-2.348" x2="19.24" y1="9.652" y2="31.24" gradientUnits="userSpaceOnUse"><stop offset="0" stop-color="#262626" stop-opacity="0"/><stop offset="1" stop-color="#262626" stop-opacity=".8"/></linearGradient><rect width="4" height="10" x="10" y="19" fill="url(#EsFuWYSpFdGKwRKMAfEJsh)"/></svg>