<svg xmlns="http://www.w3.org/2000/svg" baseProfile="basic" viewBox="0 0 48 48"><linearGradient id="mg8XiYs6l7e_DRq7KH52va" x1="-18.156" x2="44.756" y1="59.776" y2="23.453" gradientUnits="userSpaceOnUse"><stop offset="0" stop-color="#262626" stop-opacity="0"/><stop offset="1" stop-color="#262626" stop-opacity=".8"/></linearGradient><path fill="url(#mg8XiYs6l7e_DRq7KH52va)" d="M35,42H3v-1c0-6.075,4.925-11,11-11h10c6.075,0,11,4.925,11,11V42z"/><linearGradient id="mg8XiYs6l7e_DRq7KH52vb" x1="14.339" x2="33.539" y1="14.694" y2="25.779" gradientUnits="userSpaceOnUse"><stop offset="0" stop-color="#262626" stop-opacity="0"/><stop offset="1" stop-color="#262626" stop-opacity=".8"/></linearGradient><path fill="url(#mg8XiYs6l7e_DRq7KH52vb)" d="M27.07,22H26l-1,5h-6c-1.07,0-2.07-0.28-2.93-0.77c1.19-0.85,1.87-2.35,1.59-3.93L16,13h5	c1.96,0,3.74-0.81,5-2.11V16l1.91,4.77C28.14,21.36,27.71,22,27.07,22z"/><linearGradient id="mg8XiYs6l7e_DRq7KH52vc" x1="17.5" x2="17.5" y1="-31.47" y2="31.907" gradientUnits="userSpaceOnUse"><stop offset="0" stop-color="#262626" stop-opacity="0"/><stop offset="1" stop-color="#262626" stop-opacity=".8"/></linearGradient><path fill="url(#mg8XiYs6l7e_DRq7KH52vc)" d="M16.071,6c-3.484,0-6.437,2.562-6.93,6.01L7,27h6.722c2.491,0,4.376-2.251,3.938-4.703L16,13	h5c3.866,0,7-3.134,7-7H16.071z"/><linearGradient id="mg8XiYs6l7e_DRq7KH52vd" x1="16.975" x2="25.003" y1="19.479" y2="14.844" gradientUnits="userSpaceOnUse"><stop offset="0" stop-color="#262626" stop-opacity="0"/><stop offset="1" stop-color="#262626" stop-opacity=".8"/></linearGradient><path fill="url(#mg8XiYs6l7e_DRq7KH52vd)" d="M22,18L22,18c-1.105,0-2-0.895-2-2v0h4v0C24,17.105,23.105,18,22,18z"/><linearGradient id="mg8XiYs6l7e_DRq7KH52ve" x1="13.448" x2="71.096" y1="31.964" y2="-1.319" gradientUnits="userSpaceOnUse"><stop offset="0" stop-color="#262626" stop-opacity="0"/><stop offset="1" stop-color="#262626" stop-opacity=".8"/></linearGradient><path fill="url(#mg8XiYs6l7e_DRq7KH52ve)" d="M42,12H31v-1c0-2.209,1.791-4,4-4h11v1C46,10.209,44.209,12,42,12z M46,16v-1H35	c-2.209,0-4,1.791-4,4v1h11C44.209,20,46,18.209,46,16z M46,24v-1H35c-2.209,0-4,1.791-4,4v1h11C44.209,28,46,26.209,46,24z"/></svg>